# xmcd
#
# Track frame offsets: 
#        150
#        16712
#        28986
#        34208
#        51184
#        63746
#        86108
#        102092
#        114157
#        133847
#        147854
#        171656
#        185134
#        200801
#        215687
#        235564
#        240254
#
# Disc length: 3457 seconds
#
# Revision: 0
# Processed by: cddbd v1.5.2PL0 Copyright (c) Steve Scherf et al.
# Submitted via: ExactAudioCopy v0.99pb4
#
DISCID=fa0d7f11
DTITLE=Sleepy John Estes - On 80 Highway
DYEAR=2008
DGENRE=Blues
TTITLE0=Love Grows In Your Heart
TTITLE1=Potatoe Diggin' Man
TTITLE2=Talk
TTITLE3=I'll Be Glad When You're Dead
TTITLE4=Holly Spirit
TTITLE5=80 Highway
TTITLE6=When The Saints Go Marching In
TTITLE7=Corrine Corrina
TTITLE8=President Kennedy (Take 14)
TTITLE9=IGA
TTITLE10=T Model Ford
TTITLE11=Do Lord Remember Me
TTITLE12=Vernita Blues
TTITLE13=Mary Come On Home
TTITLE14=President Kennedy (Take 13)
TTITLE15=Talk
TTITLE16=Brownswille Blues
EXTD=
EXTT0=
EXTT1=
EXTT2=
EXTT3=
EXTT4=
EXTT5=
EXTT6=
EXTT7=
EXTT8=
EXTT9=
EXTT10=
EXTT11=
EXTT12=
EXTT13=
EXTT14=
EXTT15=
EXTT16=
PLAYORDER=
